<svg width="41" height="40" viewBox="0 0 41 40" fill="none" xmlns="http://www.w3.org/2000/svg">
<rect x="0.582031" width="40" height="40" rx="20" fill="#C80313"/>
<path d="M19.832 20.75V17C19.832 16.8011 19.911 16.6103 20.0517 16.4697C20.1924 16.329 20.3831 16.25 20.582 16.25C20.7809 16.25 20.9717 16.329 21.1124 16.4697C21.253 16.6103 21.332 16.8011 21.332 17V20.75C21.332 20.9489 21.253 21.1397 21.1124 21.2803C20.9717 21.421 20.7809 21.5 20.582 21.5C20.3831 21.5 20.1924 21.421 20.0517 21.2803C19.911 21.1397 19.832 20.9489 19.832 20.75ZM20.582 25.25C20.8045 25.25 21.022 25.184 21.207 25.0604C21.3921 24.9368 21.5362 24.7611 21.6214 24.5555C21.7065 24.35 21.7288 24.1238 21.6854 23.9055C21.642 23.6873 21.5349 23.4868 21.3775 23.3295C21.2202 23.1722 21.0197 23.065 20.8015 23.0216C20.5833 22.9782 20.3571 23.0005 20.1515 23.0856C19.9459 23.1708 19.7702 23.315 19.6466 23.5C19.523 23.685 19.457 23.9025 19.457 24.125C19.457 24.4234 19.5756 24.7095 19.7865 24.9205C19.9975 25.1315 20.2837 25.25 20.582 25.25ZM29.582 13.25V18.5C29.582 23.4425 27.1895 26.4378 25.1823 28.0803C23.0205 29.8484 20.8698 30.4494 20.7761 30.4738C20.6472 30.5088 20.5113 30.5088 20.3823 30.4738C20.2886 30.4494 18.1408 29.8484 15.9761 28.0803C13.9745 26.4378 11.582 23.4425 11.582 18.5V13.25C11.582 12.8522 11.7401 12.4706 12.0214 12.1893C12.3027 11.908 12.6842 11.75 13.082 11.75H28.082C28.4799 11.75 28.8614 11.908 29.1427 12.1893C29.424 12.4706 29.582 12.8522 29.582 13.25ZM28.082 13.25H13.082V18.5C13.082 21.9969 14.3777 24.8291 16.9323 26.9197C18.0201 27.8093 19.2553 28.5013 20.582 28.9644C21.9263 28.4931 23.177 27.7886 24.2767 26.8831C26.8014 24.7962 28.082 21.9753 28.082 18.5V13.25Z" fill="white"/>
</svg>
