<svg width="63" height="50" viewBox="0 0 63 50" fill="none" xmlns="http://www.w3.org/2000/svg">
<circle cx="6.91208" cy="6.91208" r="6.91208" transform="matrix(-1 0 0 1 54.0488 0)" fill="#06704C"/>
<circle cx="2.76483" cy="2.76483" r="2.76483" transform="matrix(-1 0 0 1 5.66504 32.7168)" fill="#06704C"/>
<path d="M3.38721 8.19839C1.1168 13.7925 3.81118 20.1679 9.40527 22.4383C10.0224 22.6888 10.6489 22.8788 11.2785 23.0112C14.7817 23.748 18.694 24.7499 20.5685 27.7997C22.757 31.3605 21.5609 35.9846 18.3292 38.6351C11.8857 43.9199 6.67173 50.8854 3.43253 59.2042C-6.62315 85.0287 6.16005 114.115 31.9846 124.171C57.8092 134.227 86.8958 121.444 96.9515 95.619C107.007 69.7945 94.224 40.7078 68.3994 30.6521C57.1198 26.26 45.2178 26.225 34.5511 29.7307C30.6876 31.0005 26.2827 29.7974 24.1532 26.3326L23.3614 25.0443C21.7911 22.4894 22.5174 19.199 23.6452 16.4203C25.9156 10.8262 23.2213 4.45075 17.6272 2.18034C12.0331 -0.090076 5.65762 2.6043 3.38721 8.19839Z" fill="#06704C"/>
</svg>
