<svg width="223" height="156" viewBox="0 0 223 156" fill="none" xmlns="http://www.w3.org/2000/svg">
<g opacity="0.15">
<path d="M102.364 131.647C95.8736 131.667 89.3835 131.823 82.9046 132.543C80.4619 132.815 78.0702 133.413 75.6219 133.654C70.7313 134.135 65.9284 135.033 61.0205 135.448C57.0682 135.781 53.0993 135.978 49.1586 136.401C45.4639 136.798 41.3737 136.707 37.7074 136.051C34.9932 135.565 32.2668 135.292 29.5982 134.513C26.613 133.64 23.3698 133.017 20.2596 133.039C15.8244 133.071 11.5051 133.075 7.26049 134.615C5.77056 135.156 3.94659 136.045 2.8151 137.179C0.224989 139.776 -0.125623 146.257 2.46058 148.95C6.81641 153.484 16.1133 155.263 22.219 155.347C28.9096 155.439 35.4092 154.942 42.1095 154.65C48.3356 154.379 54.5462 153.993 60.7827 154.006C73.5198 154.034 86.2588 154.006 98.973 153.156C110.918 152.356 122.894 152.631 134.865 152.631C147.141 152.631 159.334 152.727 171.522 154.359C176.832 155.069 182.243 155.318 187.579 155.816C192.359 156.262 196.952 155.808 201.713 155.395C205.711 155.049 209.682 154.022 213.314 152.287C216.188 150.913 221.313 146.645 222.195 143.366C224.667 134.172 187.364 134.393 181.636 134.414C175.229 134.437 168.771 134.648 162.369 134.403C159.676 134.301 157.023 133.774 154.395 133.198C151.777 132.623 149.139 132.769 146.484 132.528C135.413 131.521 124.317 131.668 113.21 131.668C109.596 131.668 105.98 131.636 102.364 131.647Z" fill="#D67086"/>
</g>
<path d="M66.305 63.0374C66.2406 63.044 66.177 63.0553 66.1142 63.0731C65.5297 63.2388 65.4081 63.8334 64.9489 64.1175C64.7442 64.2441 64.0315 64.1415 64.1051 64.5337C64.1334 64.6783 64.1873 65.1733 64.2723 65.6666C64.1908 66.0748 64.1275 66.4876 64.008 66.8863C63.7053 67.8955 61.8769 69.6702 62.9285 70.6636C63.132 70.8558 63.3413 71.052 63.5989 71.1611C63.8095 71.2504 64.0411 71.2766 64.2693 71.2914C64.4472 71.3029 64.7267 71.3634 64.8577 71.2493C64.9951 71.1293 65.0743 70.6765 65.1406 70.5013C65.3301 70.0008 65.5196 69.5003 65.709 68.9999C65.8948 68.5088 66.1598 67.948 66.675 67.8474C66.7878 67.8253 66.9057 67.8283 67.0143 67.7912C67.137 67.7493 67.2369 67.6603 67.3306 67.5709C67.6739 67.2431 67.9996 66.8794 68.2582 66.4795C68.7202 65.764 68.1935 64.5379 67.9483 63.8304C67.8873 63.6543 67.8182 63.4739 67.6868 63.3417C67.4729 63.1267 67.1453 63.0848 66.8435 63.0546C66.6649 63.0364 66.4825 63.019 66.305 63.0374Z" fill="#EFBBBB"/>
<path d="M59.3929 80.4855C61.6633 78.5844 63.6707 76.3716 65.348 73.9314C65.9968 72.9875 67.2394 71.6442 66.6849 70.4356C66.116 69.1959 63.4803 68.5412 62.2959 68.2778C60.2359 71.7402 56.6951 77.9299 51.7853 74.445C50.5042 73.5356 49.5636 71.9833 48.0129 71.7303C47.0331 71.5703 46.0132 72.0172 45.3438 72.7502C42.7277 75.6151 45.2073 79.0241 47.4719 81.1561C49.8661 83.4106 53.7115 83.8613 56.655 82.3887C57.5328 81.9494 58.3266 81.3596 59.087 80.7387C59.1894 80.6549 59.2914 80.5705 59.3929 80.4855Z" fill="#D67086"/>
<path d="M44.2214 39.2774C53.2962 39.2774 60.6528 31.8916 60.6528 22.7807C60.6528 13.6698 53.2962 6.28394 44.2214 6.28394C35.1466 6.28394 27.79 13.6698 27.79 22.7807C27.79 31.8916 35.1466 39.2774 44.2214 39.2774Z" fill="#8CABEF"/>
<path d="M52.3282 26.2632C51.0468 26.2632 49.9381 27.0167 49.4225 28.1035L42.4807 27.1629C42.4261 25.9034 41.8648 24.7733 40.9958 23.971L44.9207 18.302C45.3804 18.4975 45.8855 18.6057 46.4157 18.6057C48.5285 18.6057 50.2478 16.8876 50.2478 14.7761C50.2478 12.6644 48.5288 10.9465 46.4157 10.9465C44.3028 10.9465 42.5836 12.6646 42.5836 14.7761C42.5836 15.6799 42.8987 16.5114 43.4245 17.1671L39.385 23.0018C38.9073 22.8347 38.3944 22.7435 37.8603 22.7435C35.31 22.7435 33.2354 24.817 33.2354 27.3655C33.2354 29.9141 35.31 31.9874 37.8603 31.9874C39.8067 31.9874 41.4758 30.7795 42.1574 29.0746L49.1614 30.0235C49.4227 31.5339 50.7432 32.6866 52.3282 32.6866C54.1004 32.6866 55.5419 31.2457 55.5419 29.4747C55.5419 27.7036 54.1004 26.2632 52.3282 26.2632Z" fill="white"/>
<path d="M131.713 66.3167C131.774 66.2999 131.836 66.2877 131.9 66.2817C132.491 66.2258 132.812 66.7242 133.331 66.8204C133.562 66.8632 134.175 66.5172 134.247 66.9007C134.272 67.0426 134.398 67.5124 134.495 67.9917C134.714 68.3347 134.918 68.6883 135.168 69.0093C135.801 69.8212 138.095 70.7904 137.489 72.0676C137.372 72.3146 137.251 72.5674 137.055 72.7583C136.894 72.9143 136.693 73.0202 136.49 73.1144C136.332 73.1878 136.099 73.3421 135.939 73.2843C135.772 73.2237 135.539 72.8393 135.417 72.7032C135.067 72.3144 134.717 71.9256 134.367 71.537C134.024 71.1555 133.584 70.7384 133.079 70.8293C132.969 70.8491 132.862 70.8935 132.75 70.8981C132.624 70.9034 132.501 70.8579 132.384 70.8095C131.956 70.6325 131.53 70.4165 131.153 70.1437C130.479 69.6557 130.524 68.3525 130.497 67.6211C130.49 67.439 130.489 67.2502 130.562 67.0833C130.681 66.8117 130.964 66.6574 131.229 66.5232C131.385 66.4433 131.545 66.3627 131.713 66.3167Z" fill="#EFBBBB"/>
<path d="M144.512 80.5011C143.856 80.4513 143.192 80.3995 142.573 80.1781C142.079 80.0015 141.63 79.7223 141.192 79.434C138.477 77.6469 136.042 75.4343 134.005 72.9015C134.85 71.6271 135.95 70.5225 137.221 69.6724C139.325 71.3165 141.561 72.7929 143.899 74.0828C144.377 74.3466 144.866 74.6051 145.398 74.732C146.163 74.915 146.964 74.8137 147.745 74.7115C150.771 74.3153 153.796 73.9191 156.823 73.5231C158.648 73.2842 160.542 73.0503 162.3 73.5956C167.177 75.1081 165.986 81.4546 161.237 81.822C155.905 82.2346 149.86 80.9074 144.512 80.5011Z" fill="#8CABEF"/>
<path d="M41.5652 144.959L41.4503 146.293L40.5697 147.378C40.5697 147.378 40.317 149.006 40.7983 149.292C41.2797 149.577 48.7927 150.469 48.7927 150.469L49.5669 149.314L48.946 148.039L44.9751 146.223L43.6111 144.708L41.5652 144.959Z" fill="#292949"/>
<path d="M49.4194 142.077L49.3043 143.411L48.4364 144.497C48.4364 144.497 48.1854 146.125 48.6585 146.41C49.1318 146.695 56.5226 147.576 56.5226 147.576L57.2859 146.421L56.6768 145.146L52.7722 143.336L51.4323 141.823L49.4194 142.077Z" fill="#292949"/>
<path d="M40.3798 118.796C41.0249 120.153 41.6057 121.384 41.7109 123.132C41.8142 124.852 41.4926 126.564 41.2491 128.269C40.4058 134.17 40.4887 140.159 40.5732 146.119C42.629 146.208 44.6871 146.251 46.7449 146.247C47.0948 146.246 47.4892 146.225 47.7222 145.964C47.9556 145.702 47.9307 145.307 47.8918 144.958C47.4199 140.723 47.4526 136.439 47.5166 132.185C47.5481 130.09 47.6202 128.298 48.0498 126.276C48.4763 124.267 48.4004 122.186 48.2625 120.15C47.925 115.163 46.9148 110.269 46.6365 105.285C46.5861 104.381 46.5004 103.409 45.9155 102.719C45.2122 101.888 44.0063 101.718 42.9179 101.719C39.9254 101.72 36.5486 102.192 36.3981 105.821C36.3479 107.031 36.6667 108.223 37.0051 109.385C37.7807 112.049 38.6237 114.739 39.6981 117.299C39.921 117.832 40.1544 118.321 40.3798 118.796Z" fill="#292949"/>
<path d="M48.7229 116.506C49.3378 117.894 49.8914 119.152 49.9129 120.903C49.934 122.625 49.5042 124.32 49.1575 126.011C47.9579 131.862 47.7369 137.848 47.5193 143.805C49.6981 143.996 51.8814 144.14 54.0668 144.238C54.4384 144.255 54.8583 144.253 55.1191 144.004C55.3804 143.754 55.3744 143.358 55.3511 143.008C54.9991 137.716 54.6025 132.408 54.975 127.118C55.1175 125.093 55.3726 123.076 55.4865 121.05C55.7087 117.105 55.3914 113.154 54.9105 109.235C54.6142 106.821 55.0339 101.653 52.5914 100.192C51.4857 99.5299 50.0876 99.4323 48.7947 99.6301C48.1354 99.7311 47.4772 99.9082 46.9199 100.254C45.8459 100.921 45.2785 102.145 45.1627 103.351C45.0469 104.557 45.324 105.763 45.6235 106.941C46.3098 109.639 47.0665 112.367 48.0753 114.978C48.2855 115.521 48.5079 116.021 48.7229 116.506Z" fill="#292949"/>
<path d="M39.4156 71.3491C37.5569 72.7356 36.3269 75.1273 36.175 77.6095C35.9906 80.6227 35.2064 83.6509 34.9458 86.6761C34.4306 92.6538 34.5602 98.6692 35.273 104.625C35.3519 105.285 35.4737 106.021 36.0094 106.412C36.616 106.856 37.4595 106.655 38.1808 106.443C43.853 104.773 49.6647 103.579 55.5353 102.876C55.8871 102.834 54.3847 88.693 54.2309 87.3985C53.6832 82.7892 52.8202 78.0015 49.8843 74.2297C48.6437 72.636 47.0799 71.2289 45.1843 70.5318C42.9941 69.7261 40.9818 70.1807 39.4156 71.3491Z" fill="#D67086"/>
<path d="M47.8973 61.7144C47.9739 62.9308 48.0331 64.2283 47.4249 65.2845C46.9069 66.1844 45.9844 66.7643 45.2758 67.5236C44.8442 67.986 44.4853 68.5878 44.4045 69.2246C44.3248 69.8531 44.6626 70.389 44.6586 71.0179C44.6582 71.0769 44.6559 71.1381 44.628 71.1899C44.5983 71.2454 44.5438 71.2831 44.4885 71.3131C44.2044 71.4673 43.866 71.4728 43.5428 71.4747C43.1609 71.477 42.7437 71.5281 42.3653 71.4816C41.8703 71.421 41.9709 71.3211 41.9242 70.8167C41.8547 70.0646 41.7529 69.3095 41.51 68.5913C41.0093 67.1092 39.9432 65.8428 39.6412 64.2893C39.3069 62.5705 39.8065 60.8861 40.3516 59.2516C40.5954 58.5204 40.8631 57.7752 41.3643 57.1896C42.4656 55.9029 45.0484 55.492 46.2823 56.8065C47.749 58.3692 47.767 59.6501 47.8973 61.7144Z" fill="#EFBBBB"/>
<path d="M47.5066 60.8811C48.3063 61.9771 48.4364 63.5243 47.8307 64.7385C48.7601 64.09 49.1972 62.9348 49.3846 61.8171C49.4875 61.2024 49.531 60.5742 49.4604 59.9549C49.2375 57.9995 47.6875 56.1926 45.7367 55.9329C44.4463 55.7611 44.4514 57.4062 44.9544 58.2067C45.6158 59.2594 46.7793 59.884 47.5066 60.8811Z" fill="#292949"/>
<path d="M44.0894 54.9103C43.3665 54.5643 42.5313 54.5442 41.7327 54.6126C40.6385 54.7061 38.4372 55.0293 37.1372 55.8445C36.4042 54.277 34.2883 53.0921 32.7443 53.9052C31.84 54.3815 31.4489 55.4165 31.8663 56.2278C31.9706 56.4304 32.1193 56.6189 32.3129 56.7713C32.4752 56.8991 32.6688 57.0015 32.8074 57.1468C33.333 57.6972 32.8468 58.4783 32.46 59.1008C32.0233 59.8039 31.724 60.5638 31.5764 61.3431C31.4931 61.7828 31.4611 62.2464 31.6625 62.6597C31.864 63.0729 32.3534 63.4194 32.8958 63.3959C33.8779 63.3535 34.0759 62.5169 34.1267 61.7565C34.1852 60.881 34.3328 60.1128 34.7299 59.297C34.8754 58.9981 35.0743 58.6832 35.3954 58.5976C35.4569 58.5812 35.5186 58.575 35.5805 58.5752C35.3646 59.3066 35.2476 60.0477 35.3614 60.8617C35.5877 62.484 36.1878 64.066 37.1809 65.3686C38.1743 66.6711 39.5699 67.6822 41.148 68.121C41.2596 67.1226 40.2066 66.3665 40.0151 65.3805C39.9113 64.8467 40.0756 64.2886 40.3551 63.8222C40.6346 63.3556 41.022 62.9652 41.4058 62.5798C42.0672 61.9154 42.7288 61.2512 43.3902 60.5868C43.9298 60.0449 44.4745 59.4966 44.8779 58.8467C45.6981 57.525 45.6599 55.6621 44.0894 54.9103Z" fill="#292949"/>
<path d="M100.846 83.1836C122.36 83.1836 139.801 65.7427 139.801 44.2283C139.801 22.7138 122.36 5.27295 100.846 5.27295C79.3313 5.27295 61.8904 22.7138 61.8904 44.2283C61.8904 65.7427 79.3313 83.1836 100.846 83.1836Z" fill="#353A85"/>
<path d="M132.112 30.7626C130.403 26.6425 127.956 22.9427 124.84 19.7658C121.724 16.5891 118.096 14.0945 114.055 12.3521C109.87 10.5474 105.426 9.63257 100.846 9.63257C96.2655 9.63257 91.8215 10.5477 87.637 12.3521C83.5961 14.0948 79.9672 16.5891 76.8515 19.7658C73.7356 22.9427 71.2892 26.6425 69.5801 30.7626C67.8102 35.0291 66.9126 39.5601 66.9126 44.2302C66.9126 48.9003 67.81 53.4311 69.5801 57.6976C71.2892 61.8177 73.7356 65.5174 76.8515 68.6943C79.9675 71.871 83.5961 74.3656 87.637 76.1081C91.8215 77.9127 96.2658 78.8276 100.846 78.8276C105.426 78.8276 109.87 77.9125 114.055 76.1081C118.096 74.3654 121.724 71.871 124.84 68.6943C127.956 65.5174 130.403 61.8177 132.112 57.6976C133.882 53.4311 134.779 48.9 134.779 44.2302C134.779 39.5603 133.882 35.0291 132.112 30.7626ZM131.364 44.23C131.364 46.7763 131.066 49.2757 130.487 51.6872H120.287C120.898 48.883 121.206 46.0334 121.206 43.1634C121.206 40.4628 120.933 37.8119 120.392 35.2307H130.075C130.924 38.1121 131.364 41.1366 131.364 44.23ZM122.426 22.2277C125.161 25.0165 127.312 28.2415 128.819 31.7488H119.485C119.143 30.6548 118.752 29.5756 118.309 28.5132C116.776 24.8309 114.64 21.3451 111.962 18.1527C110.576 16.5009 109.193 15.1026 107.933 13.9525C113.376 15.2663 118.371 18.0938 122.426 22.2277ZM102.553 14.0004C104.153 15.171 106.758 17.3058 109.367 20.4159C111.818 23.3375 113.769 26.52 115.166 29.8742C115.424 30.4928 115.662 31.118 115.882 31.7488H102.553V14.0004ZM116.891 35.2307C117.489 37.802 117.791 40.4545 117.791 43.1634C117.791 46.0353 117.451 48.8867 116.78 51.6872H102.553V35.2307H116.891ZM84.3528 43.1634C84.3528 40.4545 84.6546 37.802 85.2527 35.2307H99.1383V51.6872H85.3639C84.6921 48.8867 84.3528 46.0355 84.3528 43.1634ZM99.1383 14.3411V31.749H86.2614C86.473 31.1424 86.7014 30.5411 86.9477 29.946C88.3315 26.6024 90.2658 23.4282 92.6966 20.5117C95.0878 17.6426 97.5027 15.5829 99.1383 14.3411ZM79.2662 22.2277C83.4704 17.9414 88.6851 15.0598 94.3626 13.8139C93.0624 14.9896 91.6229 16.4339 90.181 18.1527C87.503 21.3451 85.3675 24.8309 83.8339 28.5132C83.3914 29.5756 82.9998 30.6548 82.6582 31.7488H72.873C74.3795 28.2417 76.5311 25.0165 79.2662 22.2277ZM71.617 35.2307H81.7516C81.2106 37.8117 80.9378 40.4628 80.9378 43.1634C80.9378 46.0334 81.2458 48.883 81.8566 51.6872H71.2051C70.6259 49.2757 70.3276 46.7761 70.3276 44.23C70.3276 41.1366 70.7677 38.1121 71.617 35.2307ZM79.2662 66.2322C76.1347 63.0394 73.7678 59.2745 72.2588 55.1692H82.779C83.0884 56.1598 83.4361 57.1435 83.8228 58.1189C85.3473 61.9629 87.4694 65.6834 90.1304 69.1769C91.8687 71.459 93.6022 73.3384 95.0892 74.7959C89.1301 73.6423 83.649 70.7009 79.2662 66.2322ZM92.8273 67.0412C90.3594 63.8012 88.3951 60.3602 86.9887 56.8138C86.7723 56.2684 86.5695 55.7201 86.3795 55.1694H99.1383V73.8513C97.5142 72.4143 95.1709 70.1177 92.8273 67.0412ZM102.553 74.2418V55.1692H115.764C115.581 55.6982 115.387 56.2251 115.18 56.7493C113.785 60.2854 111.835 63.7176 109.384 66.9509C106.802 70.3581 104.194 72.8317 102.553 74.2418ZM122.426 66.2322C118.183 70.5581 112.911 73.4533 107.172 74.6803C108.633 73.2394 110.321 71.3989 112.013 69.1769C114.674 65.6834 116.796 61.9629 118.321 58.1189C118.708 57.1437 119.055 56.16 119.365 55.1692H129.433C127.924 59.2745 125.557 63.0392 122.426 66.2322Z" fill="white"/>
<path d="M184.294 144.316C183.92 144.756 183.451 145.079 183.03 145.463C181.499 144.208 180.1 142.938 178.86 141.36C180 141.225 180.226 140.236 181.542 141.29C181.967 141.632 183.559 143.831 184.294 144.316Z" fill="#EFBBBB"/>
<path d="M182.106 144.858C181.819 145.079 181.794 145.341 181.795 145.663C181.795 145.85 181.864 146.04 181.818 146.224C181.773 146.408 181.676 146.541 181.558 146.7C180.933 147.541 179.284 149.287 181.434 149.515C183.387 149.722 184.998 147.017 185.88 145.41C185.938 145.305 186.009 145.201 185.999 145.077C185.99 144.952 185.933 144.822 185.859 144.705C185.445 144.053 184.945 143.222 184.098 143.688C183.736 143.887 183.685 144.328 183.301 144.537C182.986 144.708 182.393 144.637 182.106 144.858Z" fill="#292949"/>
<path d="M176.102 111.753C176.346 115.634 172.907 121.313 173.899 124.477C175.973 131.095 178.148 134.878 181.932 140.121C182.203 140.496 183.098 141.334 183.484 141.808C182.558 143.018 181.485 143.866 180.287 144.887C174.74 140.155 169.79 137.094 166.208 129.863C163.377 124.146 162.38 114.867 160.906 108.125C160.662 107.008 160.291 105.398 161.03 104.382C161.597 103.602 162.396 103.262 163.409 103.016C166.117 102.361 169.821 100.941 172.364 102.651C175.144 104.521 175.914 108.771 176.102 111.753Z" fill="#5D66D3"/>
<path d="M150.783 147.908C150.199 148.029 149.612 147.97 149.027 148.034C148.558 145.998 148.188 144.002 148.162 141.883C149.189 142.555 149.966 141.924 150.361 143.655C150.488 144.215 150.459 147.032 150.783 147.908Z" fill="#EFBBBB"/>
<path d="M148.657 146.944C148.292 146.944 148.109 147.157 147.908 147.407C147.79 147.553 147.733 147.759 147.596 147.887C147.459 148.015 147.295 148.054 147.1 148.102C146.075 148.356 143.68 148.72 145.242 150.241C146.661 151.623 149.606 150.492 151.311 149.777C151.423 149.73 151.546 149.691 151.62 149.587C151.693 149.484 151.726 149.342 151.742 149.205C151.833 148.443 151.956 147.433 150.997 147.271C150.588 147.202 150.245 147.518 149.807 147.44C149.448 147.376 149.022 146.944 148.657 146.944Z" fill="#292949"/>
<path d="M166.042 117.267C163.235 120.07 155.2 122.128 153.892 125.354C153.368 126.649 151.642 136.221 151.38 142.961C151.361 143.443 151.581 144.698 151.586 145.335C150.089 145.764 148.743 145.674 147.129 145.788C145.95 138.022 144.728 124.421 144.728 124.421C146.325 117.629 154.032 109.84 158.31 103.721C159.018 102.708 159.846 101.32 161.118 101.149C162.093 101.018 162.863 101.363 163.74 101.933C166.086 103.459 169.675 105.159 170.195 108.198C170.764 111.521 168.199 115.113 166.042 117.267Z" fill="#5D66D3"/>
<path d="M164.835 75.134C167.415 77.4004 169.559 80.6123 171.069 84.1217C173.743 90.3363 174.766 97.4415 175.752 104.409C176.08 106.728 176.408 109.047 176.736 111.365C177.059 113.647 176.978 114.176 175.11 114.344C171.648 114.654 167.998 114.61 164.647 113.354C163.053 112.756 161.518 111.878 159.882 111.505C157.501 110.963 155.29 112.052 152.987 111.893C153.227 109.456 153.77 107.148 153.824 104.642C153.878 102.134 153.719 99.6258 153.5 97.1351C153.116 92.7825 152.915 88.4092 152.557 84.0667C152.301 80.9565 151.654 78.5211 153.775 75.8935C154.93 74.4629 157.048 71.9789 158.963 72.0125C160.995 72.048 163.393 73.8671 164.835 75.134Z" fill="#8CABEF"/>
<path d="M153.557 71.0599C154.264 71.7287 155.155 72.1645 155.96 72.7124C156.743 73.2456 157.186 73.8354 157.658 74.6301C157.999 75.204 158.411 75.5935 159.19 75.3999C160.66 75.0348 159.797 74.0474 159.775 73.0844C159.75 71.9836 160.213 70.9177 160.406 69.8479C160.963 66.7564 158.549 62.0686 154.899 62.3372C150.909 62.6312 151.409 69.0306 153.557 71.0599Z" fill="#EFBBBB"/>
<path d="M158.308 65.7359C158.708 65.994 158.928 66.5525 158.706 66.9735C158.587 67.1989 158.368 67.355 158.232 67.5705C157.833 68.2022 158.297 69.042 158.882 69.507C159.467 69.972 160.2 70.2934 160.595 70.9281C162.584 69.3164 164.106 66.9807 164.246 64.4239C164.346 62.5788 163.611 60.6563 162.237 59.4067C160.625 57.94 158.994 58.0206 156.895 57.8417C156.031 57.768 155.142 57.6967 154.312 57.9488C153.557 58.1783 152.9 58.662 152.152 58.9145C150.914 59.3328 149.34 59.1811 148.542 60.2168C148.08 60.8161 148.052 61.6674 148.308 62.3794C148.563 63.0915 149.064 63.6875 149.595 64.2262C150.309 64.9513 151.097 65.6045 151.943 66.1717C151.541 65.9021 152.932 64.351 153.249 64.283C153.998 64.1221 155.184 64.9728 155.951 65.1558C156.689 65.3319 157.654 65.3144 158.308 65.7359Z" fill="#292949"/>
<path d="M103.839 62.9021L115.948 113.003L125.787 103.098L137.484 118.358L143.067 114.079L148.65 109.799L136.953 94.5394L149.074 87.6121L103.839 62.9021Z" fill="#292949"/>
<path d="M149.428 109.01C148.113 107.293 146.797 105.577 145.481 103.86C143.382 101.122 141.283 98.3836 139.184 95.6452C138.815 95.164 138.447 94.6829 138.078 94.2018C141.463 92.2668 144.849 90.3319 148.234 88.3972C148.739 88.1083 149.245 87.8194 149.75 87.5307C150.111 87.3244 149.944 86.8228 149.651 86.663C148.149 85.8423 146.646 85.0214 145.144 84.2009C141.537 82.2303 137.93 80.2599 134.323 78.2895C129.975 75.9149 125.628 73.5402 121.282 71.1656C117.522 69.1119 113.763 67.0584 110.003 65.0049C108.756 64.3233 107.508 63.6416 106.26 62.9599C105.676 62.6406 105.098 62.279 104.495 61.9958C104.468 61.9832 104.443 61.9673 104.417 61.9532C104.223 61.8469 104.049 61.8858 103.925 61.9933C103.761 62.0711 103.653 62.2345 103.711 62.473C104.113 64.1372 104.515 65.8014 104.917 67.4654C105.883 71.4607 106.848 75.4558 107.814 79.4509C108.978 84.2656 110.142 89.0802 111.305 93.8951C112.312 98.059 113.318 102.223 114.325 106.386C114.816 108.42 115.302 110.455 115.799 112.487C115.806 112.516 115.813 112.545 115.82 112.574C115.927 113.017 116.394 113.158 116.718 112.832C119.587 109.943 122.457 107.054 125.326 104.166C125.587 103.903 125.848 103.64 126.11 103.377C127.308 104.939 128.505 106.502 129.703 108.065C131.802 110.803 133.901 113.541 136 116.28C136.484 116.911 136.969 117.543 137.453 118.175C137.617 118.39 137.941 118.445 138.161 118.277C141.124 116.005 144.087 113.734 147.051 111.462C147.809 110.881 148.568 110.3 149.326 109.718C149.541 109.553 149.596 109.229 149.428 109.01ZM139.83 115.722C139.204 116.202 138.578 116.682 137.951 117.162C136.739 115.581 135.527 114 134.315 112.419C132.216 109.68 130.117 106.942 128.018 104.204C127.534 103.572 127.05 102.94 126.566 102.309C126.351 102.028 125.993 102.067 125.765 102.297C122.896 105.185 120.027 108.074 117.157 110.963C116.971 111.15 116.785 111.337 116.599 111.525C116.272 110.172 115.945 108.82 115.618 107.467C114.652 103.472 113.687 99.4764 112.721 95.4813C111.557 90.6666 110.394 85.8517 109.23 81.0371C108.223 76.8733 107.217 72.7094 106.211 68.5458C105.796 66.8314 105.385 65.1163 104.968 63.4026C106.151 64.0486 107.333 64.6946 108.516 65.3406C112.123 67.3109 115.73 69.2813 119.337 71.2519C123.684 73.6266 128.032 76.0012 132.378 78.3758C136.138 80.4293 139.897 82.4831 143.656 84.5365C144.904 85.2182 146.152 85.8999 147.4 86.5815C147.72 86.7562 148.047 86.966 148.379 87.1577C145.099 89.0324 141.819 90.9067 138.54 92.7813C138.034 93.0703 137.529 93.3592 137.023 93.6479C136.788 93.7825 136.771 94.1601 136.921 94.3558C138.237 96.0725 139.553 97.7889 140.869 99.5054C142.968 102.244 145.067 104.982 147.166 107.72C147.548 108.22 147.931 108.72 148.314 109.219C145.486 111.387 142.658 113.555 139.83 115.722Z" fill="white"/>
<path d="M131.531 102.909C131.548 102.848 131.569 102.789 131.597 102.731C131.852 102.195 132.445 102.175 132.793 101.779C132.949 101.603 132.966 100.899 133.332 101.034C133.467 101.085 133.935 101.218 134.396 101.38C134.803 101.369 135.211 101.375 135.615 101.325C136.637 101.199 138.646 99.7271 139.431 100.903C139.583 101.13 139.738 101.364 139.801 101.63C139.852 101.848 139.84 102.075 139.817 102.297C139.799 102.471 139.811 102.75 139.68 102.857C139.542 102.97 139.093 102.972 138.913 103.008C138.4 103.108 137.887 103.209 137.374 103.31C136.87 103.409 136.286 103.572 136.105 104.052C136.065 104.157 136.049 104.271 135.996 104.37C135.935 104.481 135.833 104.563 135.731 104.638C135.359 104.916 134.956 105.17 134.528 105.354C133.763 105.682 132.668 104.974 132.026 104.622C131.867 104.534 131.704 104.438 131.598 104.29C131.426 104.049 131.439 103.726 131.46 103.431C131.471 103.256 131.484 103.077 131.531 102.909Z" fill="#EFBBBB"/>
<path d="M150.273 99.2008C149.894 99.7379 149.508 100.282 149 100.7C148.596 101.032 148.125 101.275 147.653 101.503C144.726 102.916 141.578 103.87 138.358 104.319C137.698 102.939 137.315 101.429 137.237 99.9014C139.728 98.9391 142.142 97.7781 144.449 96.433C144.921 96.1579 145.394 95.8708 145.776 95.4799C146.325 94.9168 146.65 94.1774 146.962 93.4552C148.175 90.6549 149.388 87.8544 150.601 85.0541C151.333 83.3646 152.104 81.6191 153.474 80.3898C157.275 76.9808 162.111 81.2593 159.989 85.5237C157.607 90.3121 153.366 94.8192 150.273 99.2008Z" fill="#8CABEF"/>
<path d="M160.733 40.6632C171.962 40.6632 181.065 31.5605 181.065 20.3316C181.065 9.10278 171.962 0 160.733 0C149.504 0 140.402 9.10278 140.402 20.3316C140.402 31.5605 149.504 40.6632 160.733 40.6632Z" fill="#5D66D3"/>
<path d="M174.979 17.7121C173.472 15.124 170.369 13.8975 167.541 14.6763C167.536 14.6777 167.531 14.6779 167.525 14.6788C166.656 15.003 165.93 15.6324 165.617 16.6255C165.549 16.8437 165.213 16.7503 165.282 16.5306C165.617 15.4661 166.369 14.7737 167.28 14.3998C166.284 11.1826 163.252 8.90395 159.92 9.15742C156.642 9.40674 153.978 11.9607 153.344 15.2368C153.62 15.3038 153.89 15.3968 154.152 15.5193C155.195 16.0067 156.004 16.8467 156.581 17.8527C156.694 18.0517 156.394 18.2314 156.28 18.033C156.091 17.702 155.87 17.3891 155.62 17.1034C154.692 16.0424 153.366 15.4104 151.968 15.4744C150.555 15.5391 149.033 16.3133 148.082 17.3725C146.992 18.5864 146.404 20.2278 146.55 21.8817C146.692 23.5049 147.516 25.0183 148.792 25.994C149.975 26.8989 151.351 27.3103 152.814 27.3674C153.773 27.4049 154.733 27.419 155.693 27.4321C158.436 27.4703 161.179 27.4814 163.922 27.4887C165.128 27.4919 166.333 27.4938 167.538 27.4947C168.528 27.4954 169.57 27.5767 170.545 27.3837C173.735 26.753 176.149 23.7528 175.831 20.3708C175.742 19.4332 175.45 18.5208 174.979 17.7121Z" fill="white"/>
<path d="M87.0399 106.061C93.0871 100.014 93.0871 90.2091 87.0399 84.1619C80.9927 78.1147 71.1883 78.1147 65.1411 84.1619C59.0939 90.2091 59.0939 100.014 65.1411 106.061C71.1883 112.108 80.9927 112.108 87.0399 106.061Z" fill="#5D66D3"/>
<path d="M87.1127 89.7773C86.519 88.7439 85.3988 88.1159 84.2144 88.1023C83.9494 88.0993 83.6842 88.1023 83.419 88.1023C82.0398 88.1023 80.6604 88.1023 79.2812 88.1023C78.2494 88.1023 77.2173 88.0984 76.1853 88.1023C75.2571 88.1058 74.3417 88.4651 73.7047 89.1521C73.0852 89.8199 72.8134 90.6494 72.7966 91.5433C72.2378 91.5433 71.6791 91.5433 71.1204 91.5433C70.0886 91.5433 69.0565 91.5394 68.0245 91.5433C67.0963 91.5468 66.181 91.9061 65.544 92.5931C64.9042 93.2828 64.6325 94.1442 64.6325 95.0715C64.6325 95.7405 64.6325 96.4098 64.6325 97.0787C64.6325 97.6835 64.5886 98.3138 64.7325 98.9062C65.0129 100.062 65.9533 101.011 67.0981 101.32C67.5399 101.44 67.9833 101.437 68.4343 101.437C70.9058 101.437 73.3776 101.437 75.8492 101.437C75.9175 101.437 75.9859 101.437 76.0543 101.437C77.2666 101.421 78.4301 100.761 78.9996 99.6755C79.1978 99.2975 79.2968 98.9126 79.3472 98.5178L79.3488 98.5183L79.3498 98.4966C79.37 98.3316 79.3827 98.1647 79.3891 97.9959C79.5012 97.9959 79.6131 97.9959 79.7252 97.9959C81.1535 97.9959 82.5817 97.9959 84.0099 97.9959C84.0783 97.9959 84.1467 97.9959 84.2151 97.9959C85.4274 97.9798 86.5908 97.3198 87.1604 96.2346C87.5197 95.5499 87.5587 94.8432 87.5587 94.0938C87.5587 93.3783 87.5587 92.6626 87.5587 91.9471C87.5582 91.1858 87.5041 90.459 87.1127 89.7773ZM76.3146 93.0634C76.3206 93.0648 76.3266 93.0659 76.334 93.0675C76.4222 93.0864 76.5094 93.1051 76.5957 93.1308C76.6383 93.1437 76.68 93.1596 76.7226 93.1723C76.7371 93.1767 76.7486 93.1799 76.758 93.1824C76.7659 93.1868 76.7755 93.1919 76.787 93.1978C76.8847 93.2487 76.9811 93.298 77.0739 93.3578C77.0852 93.365 77.1646 93.4223 77.1798 93.431C77.1977 93.446 77.2162 93.4607 77.2337 93.4762C77.3398 93.5696 77.4376 93.6718 77.5272 93.7812C77.5286 93.783 77.5295 93.784 77.5309 93.7853C77.5352 93.7929 77.5403 93.8014 77.5465 93.8116C77.5801 93.868 77.6181 93.9212 77.6508 93.9783C77.6752 94.0206 77.7813 94.2605 77.7535 94.179C77.7887 94.2759 77.8202 94.3738 77.8446 94.4741C77.8557 94.5195 77.8649 94.5651 77.8734 94.6109C77.8706 94.6056 77.8856 94.72 77.887 94.7467C77.9126 95.226 77.8907 95.7111 77.8907 96.1906C77.8907 96.29 77.8907 96.3893 77.8907 96.4887C77.8393 96.4887 77.7878 96.4887 77.7364 96.4887C77.7081 96.4887 77.6798 96.4887 77.6515 96.4887C77.215 96.4887 76.7785 96.4887 76.3418 96.4887C76.2737 96.4887 76.2053 96.4894 76.1372 96.4887C76.0575 96.4878 75.9783 96.4839 75.8989 96.477C75.9376 96.4767 75.7039 96.4381 75.659 96.4261C75.5943 96.4086 75.5319 96.3854 75.4677 96.3662C75.4576 96.3632 75.4495 96.3609 75.4417 96.3586C75.4389 96.3573 75.4366 96.3561 75.4332 96.3545C75.3029 96.2935 75.185 96.2182 75.0618 96.1448C75.0522 96.139 75.0308 96.1236 75.0167 96.1135C74.9796 96.0828 74.9433 96.0511 74.9081 96.0186C74.8279 95.9443 74.7559 95.8641 74.6836 95.7824C74.6753 95.7732 74.6686 95.7656 74.6626 95.7594C74.6578 95.7507 74.6521 95.7405 74.6438 95.7267C74.6214 95.6894 74.5954 95.6537 74.5729 95.6167C74.5388 95.5605 74.5066 95.5032 74.4769 95.4447C74.4631 95.4175 74.4504 95.3897 74.4375 95.3621C74.4364 95.3588 74.4352 95.3561 74.4338 95.3522C74.3931 95.2359 74.3565 95.1194 74.3307 94.9988C74.3258 94.9758 74.3219 94.9527 74.3178 94.9295C74.3194 94.9256 74.3044 94.8079 74.3035 94.7918C74.2996 94.7186 74.3001 94.6459 74.2998 94.5727C74.2987 94.0648 74.2996 93.5572 74.2998 93.0496C74.74 93.0496 75.1802 93.0496 75.6203 93.0496C75.7456 93.0496 75.871 93.0491 75.9963 93.0496C76.0149 93.0496 76.0336 93.0493 76.0522 93.0496C76.1399 93.051 76.2272 93.0553 76.3146 93.0634ZM77.8824 98.3023C77.8822 98.3113 77.8819 98.3189 77.8817 98.3263C77.8808 98.3302 77.8799 98.3345 77.8789 98.3401C77.852 98.4849 77.8101 98.6214 77.7682 98.7623C77.7652 98.7722 77.7569 98.7929 77.7507 98.8088C77.7293 98.8546 77.707 98.8999 77.6828 98.9444C77.6404 99.0227 77.5928 99.0968 77.5433 99.1702C77.5401 99.1721 77.4751 99.2612 77.4641 99.2736C77.4353 99.306 77.4059 99.338 77.3755 99.3691C77.3299 99.4159 77.2827 99.4607 77.2339 99.5038C77.2141 99.5213 77.1934 99.5381 77.1729 99.5549C77.1683 99.5581 77.163 99.562 77.1554 99.5673C77.055 99.6343 76.9539 99.6981 76.8464 99.7529C76.8259 99.7632 76.8048 99.7727 76.7838 99.7828C76.7714 99.7858 76.6731 99.8247 76.6595 99.8293C76.5522 99.8643 76.4438 99.8887 76.334 99.9127C76.319 99.9159 76.307 99.9186 76.2974 99.9212C76.2879 99.9212 76.2764 99.9214 76.2628 99.9219C76.1931 99.9242 76.1238 99.9292 76.0538 99.9302C73.8661 99.9302 71.6784 99.9302 69.4907 99.9302C69.0542 99.9302 68.6175 99.9302 68.181 99.9302C68.1129 99.9302 68.0445 99.9308 67.9764 99.9302C67.8967 99.9292 67.8175 99.9253 67.7381 99.9184C67.7768 99.9182 67.5431 99.8795 67.4982 99.8675C67.4335 99.85 67.3711 99.8268 67.3069 99.8077C67.2968 99.8047 67.2887 99.8024 67.2809 99.8001C67.2781 99.7987 67.2758 99.7975 67.2722 99.7959C67.1419 99.7349 67.024 99.6597 66.9008 99.5862C66.8912 99.5805 66.8697 99.565 66.8557 99.5549C66.8186 99.5243 66.7823 99.4927 66.747 99.4601C66.6669 99.3857 66.5949 99.3056 66.5226 99.2239C66.5143 99.2147 66.5076 99.2071 66.5016 99.2008C66.4968 99.1921 66.491 99.182 66.4828 99.1681C66.4604 99.1309 66.4344 99.0952 66.4119 99.0579C66.3778 99.0017 66.3458 98.9444 66.3159 98.8859C66.302 98.8587 66.2894 98.8309 66.2765 98.8033C66.2753 98.8 66.2742 98.7973 66.2728 98.7934C66.2318 98.6771 66.1955 98.5606 66.1697 98.44C66.1648 98.4172 66.1609 98.3939 66.1568 98.3709C66.1584 98.367 66.1434 98.2494 66.1425 98.2333C66.1386 98.1601 66.1391 98.0873 66.1388 98.0141C66.1377 97.4229 66.1388 96.8317 66.1388 96.2405C66.1388 95.7665 66.1259 95.2907 66.1397 94.8167C66.1411 94.7702 66.1455 94.7241 66.1471 94.6779C66.1476 94.6629 66.1478 94.6509 66.1478 94.6413C66.1503 94.6321 66.1531 94.6208 66.1563 94.6067C66.1819 94.4972 66.2047 94.3883 66.2397 94.2812C66.2445 94.2665 66.2901 94.1521 66.2859 94.156C66.3004 94.1256 66.3154 94.0952 66.3313 94.0653C66.3568 94.0167 66.3835 93.969 66.4119 93.9223C66.4234 93.9032 66.5134 93.7752 66.5157 93.7662C66.5735 93.696 66.6349 93.6286 66.6999 93.5652C66.7388 93.5273 66.78 93.4918 66.8202 93.4552C66.8311 93.4453 66.8546 93.4278 66.8732 93.4142C66.9549 93.3585 67.0376 93.3049 67.1246 93.2577C67.166 93.2351 67.2084 93.2142 67.251 93.1941C67.2399 93.202 67.3767 93.1486 67.4015 93.141C67.5074 93.1078 67.6154 93.0823 67.7245 93.0627C67.7399 93.0606 67.7572 93.0586 67.7664 93.0583C67.8362 93.056 67.9055 93.0507 67.9755 93.05C67.9916 93.0498 68.0079 93.05 68.024 93.05C68.1444 93.0496 68.2648 93.05 68.3852 93.05C68.8931 93.05 69.4007 93.05 69.9085 93.05C70.8699 93.05 71.8315 93.05 72.7929 93.05C72.7929 93.0606 72.7929 93.0712 72.7929 93.082L72.7866 93.0823V93.1794L72.7929 93.1813C72.7929 93.3334 72.7929 93.4858 72.7929 93.638C72.7929 94.2425 72.7489 94.8731 72.8928 95.4654C73.1729 96.6211 74.1136 97.57 75.2584 97.8796C75.7004 97.9991 76.1438 97.9961 76.5946 97.9961C76.9751 97.9961 77.3557 97.9961 77.7362 97.9961C77.7878 97.9961 77.8391 97.9961 77.8904 97.9961V97.9964C77.8904 98.0288 77.8909 98.0611 77.8904 98.0935C77.8898 98.1633 77.8847 98.2326 77.8824 98.3023ZM86.0515 92.7501C86.0515 93.3518 86.0524 93.9536 86.0515 94.5552C86.0515 94.5876 86.0519 94.6199 86.0515 94.6523C86.0505 94.7223 86.0455 94.7916 86.0432 94.8613C86.0429 94.8703 86.0427 94.8779 86.0425 94.8853C86.0416 94.8892 86.0409 94.8936 86.0397 94.8991C86.0128 95.0439 85.9709 95.1804 85.929 95.3213C85.926 95.3314 85.9177 95.3519 85.9115 95.3678C85.8901 95.4136 85.8677 95.459 85.8436 95.5034C85.8012 95.5817 85.7536 95.6558 85.7041 95.7292C85.7008 95.7313 85.6359 95.8202 85.6249 95.8326C85.5961 95.8653 85.5664 95.8971 85.5362 95.9281C85.4907 95.9749 85.4435 96.0198 85.3947 96.0628C85.3749 96.0803 85.3541 96.0969 85.3337 96.1139C85.3291 96.1172 85.3238 96.1208 85.3162 96.1264C85.2158 96.1933 85.1147 96.2571 85.0072 96.3119C84.9867 96.3223 84.9655 96.3317 84.9446 96.3416C84.9322 96.3446 84.8341 96.3835 84.8203 96.3881C84.713 96.4231 84.6046 96.4475 84.4948 96.4714C84.4796 96.4747 84.4678 96.4774 84.4582 96.48C84.4487 96.48 84.4374 96.4802 84.4236 96.4807C84.3539 96.483 84.2846 96.488 84.2146 96.4889C82.718 96.4889 81.2214 96.4889 79.7248 96.4889C79.6157 96.4889 79.5065 96.4889 79.3974 96.4889C79.3974 96.1218 79.3974 95.7548 79.3974 95.3876C79.3974 94.6263 79.3435 93.8995 78.952 93.2181C78.3582 92.1847 77.238 91.5567 76.0536 91.5431C75.7886 91.5401 75.5234 91.5431 75.2582 91.5431C74.9387 91.5431 74.6191 91.5431 74.2996 91.5431C74.3005 91.4874 74.2994 91.4312 74.301 91.3755C74.3024 91.329 74.3067 91.2829 74.3084 91.2367C74.3088 91.2217 74.309 91.2097 74.309 91.2001C74.3116 91.1908 74.3143 91.1796 74.3176 91.1655C74.3431 91.0559 74.3659 90.9471 74.4009 90.84C74.4057 90.8253 74.4513 90.7109 74.4472 90.7148C74.4617 90.6844 74.4769 90.654 74.4925 90.6241C74.5181 90.5755 74.5448 90.5278 74.5731 90.4811C74.5846 90.462 74.6746 90.334 74.6769 90.325C74.7347 90.2548 74.7962 90.1874 74.8611 90.124C74.9002 90.0861 74.9412 90.0506 74.9815 90.014C74.9923 90.0041 75.0158 89.9866 75.0344 89.973C75.1162 89.9173 75.1988 89.8637 75.2858 89.8165C75.3273 89.7939 75.3696 89.773 75.4124 89.7529C75.4014 89.7608 75.5381 89.7076 75.5628 89.6998C75.6687 89.6666 75.7766 89.6411 75.8858 89.6215C75.9012 89.6194 75.9185 89.6173 75.9277 89.6171C75.9974 89.6148 76.0667 89.6095 76.1367 89.6088C76.1528 89.6086 76.1692 89.6088 76.1853 89.6088C76.3057 89.6084 76.4261 89.6088 76.5465 89.6088C77.0543 89.6088 77.5619 89.6088 78.0698 89.6088C79.4593 89.6088 80.8487 89.6088 82.2382 89.6088C82.7525 89.6088 83.2668 89.6088 83.7813 89.6088C83.9066 89.6088 84.032 89.6084 84.1573 89.6088C84.1759 89.6088 84.1946 89.6086 84.2132 89.6088C84.3012 89.6097 84.3884 89.6141 84.4759 89.6222C84.4819 89.6236 84.4879 89.6247 84.4952 89.6263C84.5834 89.6452 84.6706 89.6638 84.757 89.6896C84.7996 89.7025 84.8412 89.7184 84.8838 89.7311C84.8983 89.7354 84.9098 89.7387 84.9193 89.7412C84.9271 89.7456 84.9368 89.7506 84.9483 89.7569C85.0459 89.8077 85.1423 89.857 85.2351 89.9169C85.2464 89.924 85.3258 89.9813 85.341 89.9901C85.359 90.005 85.3774 90.0198 85.3949 90.0352C85.501 90.1286 85.5989 90.2309 85.6884 90.3402C85.6898 90.3421 85.6907 90.343 85.6921 90.3444C85.6965 90.352 85.7015 90.3605 85.7078 90.3706C85.7414 90.4268 85.7793 90.4802 85.812 90.5373C85.8364 90.5796 85.9428 90.8195 85.9147 90.738C85.9499 90.8349 85.9815 90.9328 86.0059 91.0331C86.0169 91.0785 86.0261 91.1241 86.0347 91.1699C86.0319 91.1646 86.0469 91.279 86.0482 91.3057C86.0733 91.7855 86.0515 92.2705 86.0515 92.7501Z" fill="white"/>
<path d="M180.255 62.751C185.552 62.751 189.846 58.4568 189.846 53.1597C189.846 47.8625 185.552 43.5684 180.255 43.5684C174.958 43.5684 170.663 47.8625 170.663 53.1597C170.663 58.4568 174.958 62.751 180.255 62.751Z" fill="#D67086"/>
<path d="M64.1308 99.1274C64.1216 99.0648 64.1078 99.0031 64.0878 98.9428C63.9013 98.379 63.3156 98.2853 63.0189 97.849C62.8865 97.6545 62.957 96.9544 62.5769 97.0428C62.4369 97.0767 61.9558 97.1501 61.4779 97.2537C61.0759 97.1913 60.6701 97.1471 60.2757 97.047C59.2775 96.794 57.4678 95.0835 56.5421 96.1522C56.363 96.3589 56.1805 96.5714 56.0845 96.8276C56.006 97.0371 55.9901 97.2641 55.9855 97.4876C55.9818 97.6619 55.9344 97.9372 56.0515 98.0604C56.1745 98.1895 56.6199 98.2478 56.7937 98.3051C57.2905 98.469 57.7871 98.6329 58.2837 98.7968C58.7708 98.9575 59.3298 99.1926 59.4497 99.6912C59.4759 99.8003 59.478 99.9154 59.519 100.02C59.565 100.138 59.6562 100.232 59.7474 100.319C60.0819 100.641 60.4507 100.943 60.8522 101.179C61.5702 101.6 62.745 101.034 63.4257 100.765C63.5951 100.698 63.7685 100.623 63.8919 100.489C64.0928 100.271 64.12 99.9495 64.1366 99.6534C64.1469 99.4787 64.1561 99.2998 64.1308 99.1274Z" fill="#EFBBBB"/>
<path d="M45.997 93.1149C46.3061 93.6951 46.6208 94.2828 47.0727 94.7605C47.4328 95.1413 47.8695 95.4405 48.3094 95.7255C51.0377 97.4927 54.0426 98.8316 57.1809 99.6781C58.0078 98.3916 58.5767 96.9404 58.8439 95.4348C56.4921 94.1695 54.2413 92.7167 52.1201 91.0946C51.6862 90.7629 51.2527 90.4189 50.9228 89.9836C50.4474 89.3565 50.2179 88.5823 49.9976 87.8268C49.1433 84.8971 48.2887 81.9672 47.4344 79.0375C46.919 77.2699 46.3715 75.442 45.1647 74.0513C41.8186 70.1953 36.4871 73.8377 38.0606 78.3333C39.8277 83.3814 43.4741 88.382 45.997 93.1149Z" fill="#D67086"/>
</svg>
