<svg width="16" height="16" viewBox="0 0 16 16" fill="none" xmlns="http://www.w3.org/2000/svg">
<path d="M14.4533 11.3064L12.3667 6.43309C11.66 4.77976 10.36 4.71309 9.48667 6.28643L8.22667 8.55976C7.58667 9.71309 6.39334 9.81309 5.56667 8.77976L5.42001 8.59309C4.56001 7.51309 3.34667 7.64643 2.72667 8.87976L1.58001 11.1798C0.77334 12.7798 1.94001 14.6664 3.72667 14.6664H12.2333C13.9667 14.6664 15.1333 12.8998 14.4533 11.3064Z" stroke="#FAFAFA" stroke-width="1.5" stroke-linecap="round" stroke-linejoin="round"/>
<path opacity="0.4" d="M4.64667 5.3335C5.75124 5.3335 6.64667 4.43807 6.64667 3.3335C6.64667 2.22893 5.75124 1.3335 4.64667 1.3335C3.5421 1.3335 2.64667 2.22893 2.64667 3.3335C2.64667 4.43807 3.5421 5.3335 4.64667 5.3335Z" stroke="#FAFAFA" stroke-width="1.5" stroke-linecap="round" stroke-linejoin="round"/>
</svg>
