<svg width="41" height="40" viewBox="0 0 41 40" fill="none" xmlns="http://www.w3.org/2000/svg">
<path d="M20.583 0C9.53731 0 0.583008 8.95431 0.583008 20C0.583008 31.0458 9.53731 40 20.583 40C31.6288 40 40.583 31.0458 40.583 20C40.583 8.95431 31.6288 0 20.583 0Z" fill="#06704C"/>
<path fill-rule="evenodd" clip-rule="evenodd" d="M28.9575 13.4645C29.5072 13.9881 29.5445 14.8756 29.0405 15.4469L19.1362 26.6713C18.6441 27.2292 17.8146 27.281 17.2616 26.7884L10.959 21.1762C10.3926 20.672 10.327 19.7862 10.8125 19.1979C11.2979 18.6095 12.1505 18.5414 12.7169 19.0458L18.0277 23.7748L27.0492 13.5507C27.5532 12.9795 28.4077 12.9409 28.9575 13.4645Z" fill="white"/>
</svg>
