<svg width="16" height="16" viewBox="0 0 16 16" fill="none" xmlns="http://www.w3.org/2000/svg">
<path d="M6 14.6668H10C13.3333 14.6668 14.6667 13.3335 14.6667 10.0002V6.00016C14.6667 2.66683 13.3333 1.3335 10 1.3335H6C2.66667 1.3335 1.33333 2.66683 1.33333 6.00016V10.0002C1.33333 13.3335 2.66667 14.6668 6 14.6668Z" stroke="#292D32" stroke-width="1.5" stroke-linecap="round" stroke-linejoin="round"/>
<path opacity="0.4" d="M6.06667 7.99999V7.01333C6.06667 5.73999 6.96667 5.22666 8.06667 5.85999L8.92 6.35333L9.77333 6.84666C10.8733 7.47999 10.8733 8.51999 9.77333 9.15333L8.92 9.64666L8.06667 10.14C6.96667 10.7733 6.06667 10.2533 6.06667 8.98666V7.99999Z" stroke="#292D32" stroke-width="1.5" stroke-miterlimit="10" stroke-linecap="round" stroke-linejoin="round"/>
</svg>
