<svg xmlns="http://www.w3.org/2000/svg" width="32.515" height="32.515" viewBox="0 0 32.515 32.515">
  <g id="Icon_ion-social-whatsapp-outline" data-name="Icon ion-social-whatsapp-outline" transform="translate(-1.25 -1.25)">
    <path id="Path_22" data-name="Path 22" d="M10.2,6.379c-.309-.822-.666-.763-.9-.772s-.446,0-.767,0a1.563,1.563,0,0,0-1.105.465A4.523,4.523,0,0,0,5.869,9.392a7.828,7.828,0,0,0,1.506,4.243c.194.278,2.649,4.59,6.729,6.363s4.1,1.232,4.851,1.193a4.123,4.123,0,0,0,2.823-1.82,3.352,3.352,0,0,0,.31-1.913c-.1-.172-.363-.284-.763-.5s-2.366-1.27-2.734-1.419-.638-.226-.925.169-1.1,1.275-1.35,1.536-.487.286-.887.067a11.14,11.14,0,0,1-3.2-2.128A12.215,12.215,0,0,1,10.068,12.3c-.223-.413,0-.624.21-.818.19-.175.425-.457.638-.686a2.772,2.772,0,0,0,.433-.659.739.739,0,0,0-.007-.709c-.095-.206-.834-2.226-1.143-3.048Z" transform="translate(3.961 3.734)" fill="#5d5151"/>
    <path id="Path_23" data-name="Path 23" d="M17.8,3.572a13.613,13.613,0,0,1,9.651,3.965,13.43,13.43,0,0,1,0,19.1A13.613,13.613,0,0,1,17.8,30.6a13.751,13.751,0,0,1-6.6-1.684l-.872-.479-.948.3-4.46,1.417L6.33,26.013l.348-1.027-.564-.926A13.428,13.428,0,0,1,8.151,7.537,13.612,13.612,0,0,1,17.8,3.572m0-2.322A15.9,15.9,0,0,0,1.84,17.089a15.675,15.675,0,0,0,2.29,8.179l-2.881,8.5,8.837-2.807A15.989,15.989,0,0,0,33.765,17.089,15.9,15.9,0,0,0,17.8,1.25Z" transform="translate(0 0)" fill="#5d5151"/>
  </g>
</svg>
